<?xml version="1.0" encoding="utf-8"?>
<!-- Svg Vector Icons : http://www.onlinewebfonts.com/icon -->
<!DOCTYPE svg PUBLIC "-//W3C//DTD SVG 1.1//EN" "http://www.w3.org/Graphics/SVG/1.1/DTD/svg11.dtd">
<svg version="1.1" xmlns="http://www.w3.org/2000/svg" xmlns:xlink="http://www.w3.org/1999/xlink" x="0px" y="0px" viewBox="0 0 1000 1000" enable-background="new 0 0 1000 1000" xml:space="preserve">
<metadata> Svg Vector Icons : http://www.onlinewebfonts.com/icon </metadata>
<g><g transform="translate(0.000000,511.000000) scale(0.100000,-0.100000)"><path d="M181.5,4547.3c42.9-68.7,695.2-1047.1,1448.4-2175.8L2996.7,322.4v-2225.1v-2225.1h-639.4h-641.6l-45.1-49.3c-62.2-66.5-62.2-165.2,2.1-225.3l49.4-47.2h1579.2h1581.4l42.9,55.8c60.1,75.1,55.8,148.1-8.6,212.4l-51.5,53.6H4091h-772.5v2227.2V324.6L4756.2,2481c789.6,1186.6,1437.6,2162.9,1437.6,2173.6c0,8.6-1371.1,15-3046.9,15H100L181.5,4547.3z"/><path d="M5936.3,2006.8c-203.8-38.6-191-25.7-178.1-173.8c15-210.3,49.4-336.9,128.8-493.5c133-255.3,399.1-480.6,678-572.9c156.6-53.6,427-90.1,517.1-73l62.2,12.9l-12.9-90.1c-6.4-51.5-15-96.6-21.5-100.8c-6.4-6.4-70.8,10.7-145.9,36.5c-193.1,66.5-555.7,81.5-781,30c-736-163.1-1347.5-924.8-1502-1873.2c-51.5-302.6-34.3-901.2,27.9-1154.4c160.9-635.1,472.1-1135.1,894.8-1435.5c298.3-212.4,560-298.3,901.2-298.3c261.8,0,429.1,34.3,645.8,135.2c128.8,60.1,130.9,60.1,203.8,21.5c40.8-21.5,145.9-64.4,236-92.3c1032.1-334.7,2077.1,527.9,2285.2,1886.1c40.8,259.6,27.9,821.8-23.6,1051.4c-206,922.7-772.5,1594.3-1487,1761.6c-195.3,47.2-583.6,32.2-774.6-30l-137.3-45.1l15,145.9c38.6,420.6,229.6,879.7,364.8,881.9c90.1,2.1,175.9,115.9,150.2,199.5c-42.9,141.6-208.1,167.4-375.5,60.1c-94.4-57.9-231.7-236-276.8-356.2l-23.6-60.1l-64.4,100.8c-98.7,148.1-311.1,328.3-480.6,409.8C6511.4,2011.1,6191.7,2056.2,5936.3,2006.8z M8253.7,56.4c182.4-60.1,356.2-167.4,504.2-306.8c100.8-96.6,118-124.4,118-191c0-60.1-15-90.1-55.8-122.3c-90.1-70.8-143.8-55.8-291.8,75.1c-201.7,180.2-448.4,287.5-658.7,287.5c-150.2,0-223.1,191-107.3,283.2c42.9,36.5,75.1,42.9,201.7,32.2C8047.7,110,8176.5,84.2,8253.7,56.4z"/></g></g>
</svg>